<?xml version="1.0" encoding="utf-8"?>
<!-- Generator: Adobe Illustrator 26.2.1, SVG Export Plug-In . SVG Version: 6.00 Build 0)  -->
<svg version="1.1" id="Calque_1" xmlns="http://www.w3.org/2000/svg" xmlns:xlink="http://www.w3.org/1999/xlink" x="0px" y="0px"
	 viewBox="0 0 1739 192" style="enable-background:new 0 0 1739 192;" xml:space="preserve">
<style type="text/css">
	.st0{fill:#DD0C18;}
	.st1{fill:#0E3F6C;}
</style>
<g>
	<g>
		<path class="st0" d="M1031.6,29.7c0,4.4-1.4,8.1-4.3,10.9c-2.8,2.8-6.5,4.3-10.9,4.3h-55.9v33.6h41.7c4.4,0,8.1,1.4,10.9,4.3
			c2.8,2.8,4.3,6.5,4.3,10.9s-1.4,8.1-4.3,10.9c-2.8,2.8-6.5,4.3-10.9,4.3h-41.7v48.8c0,4.4-1.4,8.1-4.3,10.9
			c-2.8,2.8-6.5,4.3-10.9,4.3c-4.4,0-8.1-1.4-10.9-4.3c-2.8-2.8-4.3-6.5-4.3-10.9V29.7c0-4,1.5-7.6,4.5-10.6c3-3,6.6-4.5,10.6-4.5
			h71c4.4,0,8.1,1.4,10.9,4.3C1030.2,21.7,1031.6,25.3,1031.6,29.7z"/>
		<path class="st0" d="M1147.2,29.7c0,4.4-1.4,8.1-4.3,10.9c-2.8,2.8-6.5,4.3-10.9,4.3h-55.9v33.6h41.7c4.4,0,8.1,1.4,10.9,4.3
			c2.8,2.8,4.3,6.5,4.3,10.9s-1.4,8.1-4.3,10.9c-2.8,2.8-6.5,4.3-10.9,4.3h-41.7v33.8h55.9c4.4,0,8.1,1.4,10.9,4.3
			c2.8,2.8,4.3,6.5,4.3,10.9c0,4.4-1.4,8.1-4.3,10.9c-2.9,2.8-6.5,4.3-10.9,4.3l-70.9-0.1c-4,0-7.6-1.5-10.6-4.6
			c-3-3-4.5-6.6-4.5-10.6v-128c0-4,1.5-7.6,4.5-10.6c3-3,6.6-4.6,10.6-4.6h71c4.4,0,8.1,1.4,10.9,4.3
			C1145.8,21.7,1147.2,25.3,1147.2,29.7z"/>
		<path class="st0" d="M1267.8,157.5c0,4.1-1.6,7.7-4.7,10.8c-3.1,3.1-6.7,4.7-10.8,4.7c-3.9,0-7.5-1.6-10.6-4.7l-45.2-45.1v34.5
			c0,4.4-1.4,8.1-4.3,10.9c-2.8,2.8-6.5,4.3-10.9,4.3c-4.4,0-8.1-1.4-10.9-4.3c-2.8-2.8-4.3-6.5-4.3-10.9V29.7c0-4,1.5-7.6,4.5-10.6
			c3-3,6.6-4.5,10.6-4.5h35.5c14.1,0,26,4.9,35.9,14.8s14.8,21.8,14.8,35.9c0,11.4-3.4,21.7-10.3,30.7c-6.9,9.1-15.8,15.1-26.9,18.1
			l32.8,32.8C1266.2,150,1267.8,153.6,1267.8,157.5z M1237.2,65.3c0-5.7-2-10.5-5.9-14.4c-3.9-3.9-8.8-5.9-14.4-5.9h-20.4v40.7h20.4
			c5.7,0,10.5-2,14.4-5.9C1235.2,75.8,1237.2,70.9,1237.2,65.3z"/>
		<path class="st0" d="M1535,115c0,16-5.6,29.7-16.9,40.9c-11.2,11.2-24.9,16.9-40.9,16.9c-16,0-29.7-5.6-40.9-16.9
			c-11.2-11.2-16.9-24.9-16.9-40.9V29.7c0-4.4,1.4-8.1,4.3-10.9c2.8-2.8,6.5-4.3,10.9-4.3s8.1,1.4,10.9,4.3
			c2.8,2.8,4.3,6.5,4.3,10.9V115c0,7.6,2.7,14.1,8,19.5c5.3,5.3,11.8,8,19.5,8c7.6,0,14.1-2.7,19.5-8s8-11.8,8-19.5V29.7
			c0-4.4,1.4-8.1,4.3-10.9c2.8-2.8,6.5-4.3,10.9-4.3c4.4,0,8.1,1.4,10.9,4.3s4.3,6.5,4.3,10.9V115z"/>
		<path class="st0" d="M1690.8,93.7c0,22-7.7,40.7-23.1,56c-15.4,15.4-34.1,23.1-56,23.1h-42.6c-4.1,0-7.7-1.5-10.7-4.5
			c-3-3-4.5-6.6-4.5-10.7V29.7c0-4.1,1.5-7.7,4.5-10.7c3-3,6.6-4.5,10.7-4.5h42.6c22,0,40.7,7.7,56,23.1
			C1683.2,53,1690.8,71.7,1690.8,93.7z M1660.5,93.7c0-13.5-4.8-25-14.3-34.5c-9.5-9.5-21-14.3-34.5-14.3h-27.5v97.6h27.5
			c13.5,0,25-4.8,34.5-14.3C1655.8,118.7,1660.5,107.2,1660.5,93.7z"/>
		<path class="st0" d="M1388.4,118L1388.4,118c0-7.9-6.5-14.4-14.4-14.4h-57.3c-7.9,0-14.4,6.5-14.4,14.4v0
			c0,7.9,6.5,14.4,14.4,14.4h57.3C1382,132.4,1388.4,125.9,1388.4,118z"/>
		<path class="st0" d="M1288.4,172.5L1288.4,172.5c-7.8-2.8-11.8-11.1-8.8-18.5l51.5-129.2c2.9-7.4,11.7-11.2,19.5-8.4v0
			c7.8,2.8,11.8,11.1,8.8,18.5L1308,164.2C1305,171.5,1296.2,175.3,1288.4,172.5z"/>
		<path class="st0" d="M1404.6,172.1L1404.6,172.1c7.8-2.9,11.6-11.3,8.6-18.6L1359.8,25c-3.1-7.4-11.9-11-19.7-8.1v0
			c-7.8,2.9-11.6,11.3-8.6,18.6l53.3,128.5C1388,171.3,1396.8,175,1404.6,172.1z"/>
	</g>
	<path class="st1" d="M313.3,158.1c0,4.1-1.6,7.7-4.7,10.9c-3.1,3.1-6.8,4.7-10.9,4.7c-3.9,0-7.5-1.6-10.7-4.8l-45.4-45.4v34.7
		c0,4.4-1.4,8.1-4.3,11c-2.9,2.9-6.5,4.3-11,4.3c-4.4,0-8.1-1.4-11-4.3c-2.9-2.9-4.3-6.5-4.3-11V29.6c0-4.1,1.5-7.6,4.6-10.7
		c3-3,6.6-4.6,10.7-4.6h35.7c14.2,0,26.2,5,36.1,14.9S313,51.2,313,65.3c0,11.5-3.5,21.8-10.4,30.9c-6.9,9.1-15.9,15.2-27,18.2
		l33,33C311.7,150.6,313.3,154.1,313.3,158.1z M282.5,65.3c0-5.7-2-10.6-6-14.5c-4-4-8.8-6-14.5-6h-20.5v41h20.5
		c5.7,0,10.6-2,14.5-6C280.6,75.9,282.5,71,282.5,65.3z"/>
	<path class="st1" d="M612,115.4c0,16.1-5.7,29.9-17,41.2c-11.3,11.3-25,17-41.2,17c-16.1,0-29.9-5.7-41.2-17
		c-11.3-11.3-17-25-17-41.2V29.7c0-4.4,1.4-8.1,4.3-11c2.9-2.9,6.5-4.3,11-4.3s8.1,1.4,11,4.3c2.9,2.9,4.3,6.5,4.3,11v85.8
		c0,7.7,2.7,14.2,8.1,19.6c5.4,5.4,11.9,8,19.6,8c7.7,0,14.2-2.7,19.6-8c5.4-5.4,8.1-11.9,8.1-19.6V29.7c0-4.4,1.4-8.1,4.3-11
		c2.9-2.9,6.5-4.3,11-4.3c4.4,0,8.1,1.4,11,4.3c2.9,2.9,4.3,6.5,4.3,11V115.4z"/>
	<path class="st1" d="M858.5,29.6c0,4.4-1.4,8.1-4.3,11c-2.9,2.9-6.5,4.3-11,4.3H787v33.8h41.9c4.4,0,8.1,1.4,11,4.3
		c2.9,2.9,4.3,6.5,4.3,11c0,4.4-1.4,8.1-4.3,11c-2.9,2.9-6.5,4.3-11,4.3H787v34h56.2c4.4,0,8.1,1.4,11,4.3c2.9,2.9,4.3,6.5,4.3,11
		c0,4.4-1.4,8.1-4.3,11c-2.9,2.9-6.6,4.3-11,4.3l-71.4-0.1c-4.1,0-7.6-1.5-10.7-4.6c-3.1-3.1-4.6-6.6-4.6-10.7V29.6
		c0-4.1,1.5-7.6,4.6-10.7c3-3.1,6.6-4.6,10.7-4.6h71.5c4.4,0,8.1,1.4,11,4.3S858.5,25.2,858.5,29.6z"/>
	<g>
		<path class="st1" d="M138.8,79.5h37.4c6.9,0,11.8,1.7,14.8,5.1c3,3.4,4.5,8.7,4.5,16c0,10.6-1.7,20.4-5,29.5
			c-3.3,9.1-8.1,17-14.4,23.7c-6.3,6.7-13.9,11.9-22.8,15.6s-18.8,5.6-29.6,5.6c-14.6,0-27.7-3.6-39.2-10.7
			c-11.5-7.1-20.4-16.9-26.9-29.3c-6.4-12.4-9.6-26.1-9.6-41c0-11.4,1.8-22,5.5-31.9s8.9-18.5,15.6-25.9c6.8-7.4,14.8-13.1,24-17.1
			c9.2-4,19.4-6.1,30.5-6.1c8.2,0,16,0.9,23.5,2.7c7.5,1.8,14,4.2,19.4,7.1c5.5,2.9,9.8,6.3,12.9,10c3.2,3.7,4.7,7.5,4.7,11.3
			c0,4.7-1.3,8.4-3.9,11.2c-2.6,2.8-5.9,4.2-9.7,4.2c-4,0-8.8-1.8-14.3-5.3c-5.6-3.5-10.3-6.2-14.2-8c-3.9-1.8-10.1-2.7-18.4-2.7
			c-8.7,0-16.2,2.3-22.5,6.9C95,55,90.3,61.1,87.2,68.8C84,76.4,82.4,84.8,82.4,94c0,14.4,3.6,26.4,10.7,36.1
			c7.1,9.7,17.3,14.5,30.7,14.5c6.2,0,12.1-1.2,17.8-3.6c5.7-2.4,10.4-6.2,14.1-11.5c3.7-5.2,5.5-11.7,5.5-19.6h-22.3
			c-4.5,0-8.2-1.4-11.1-4.3c-2.9-2.8-4.4-6.6-4.4-11.2c0-4.5,1.5-8.1,4.5-10.8C130.8,80.9,134.5,79.5,138.8,79.5z"/>
	</g>
	<g>
		<path class="st1" d="M404.5,175c-14.6,0-27.7-3.6-39.2-10.7c-11.5-7.1-20.4-16.9-26.9-29.3c-6.4-12.4-9.6-26.1-9.6-41
			c0-11.4,1.8-22,5.5-31.9s8.9-18.5,15.6-25.9c6.8-7.4,14.8-13.1,24-17.1c9.2-4,19.4-6.1,30.5-6.1c10.9,0,21,2.1,30.3,6.3
			s17.4,10,24.1,17.3c6.7,7.4,12,16,15.7,25.9c3.7,9.9,5.6,20.4,5.6,31.5c0,11.2-1.8,21.8-5.4,31.6c-3.6,9.8-8.8,18.5-15.6,25.9
			c-6.8,7.4-14.9,13.2-24.2,17.3C425.7,173,415.5,175,404.5,175z M404.6,144.6c6.7,0,12.7-1.3,18-4c5.2-2.6,9.6-6.4,13.1-11.1
			c3.5-4.8,6.1-10.2,7.8-16.2c1.7-6.1,2.5-12.5,2.5-19.3c0-9.2-1.6-17.6-4.7-25.2c-3.2-7.7-7.9-13.8-14.1-18.4
			c-6.3-4.6-13.8-6.9-22.5-6.9s-16.3,2.3-22.5,6.9c-6.3,4.6-11,10.8-14.1,18.4c-3.2,7.7-4.7,16.1-4.7,25.2
			c0,14.4,3.6,26.4,10.7,36.1C381,139.8,391.2,144.6,404.6,144.6z"/>
	</g>
	<g>
		<path class="st1" d="M627.6,156.4V31.7c0-5.3,1.5-9.6,4.5-12.7c3-3.1,7.3-4.7,12.8-4.7h39.2c10.6,0,20.3,2.2,29.1,6.7
			c8.8,4.4,15.6,10.7,20.5,18.7c4.9,8,7.3,17.2,7.3,27.6c0,8-1.5,15.3-4.4,21.8c-2.9,6.5-6.9,12.1-11.9,16.6
			c-5,4.5-10.9,8-17.7,10.5c-6.8,2.5-13.9,3.7-21.4,3.7h-24.7v36.5c0,5.5-1.5,9.8-4.6,12.8c-3.1,3-7.1,4.5-12,4.5
			c-4.8,0-8.8-1.5-12-4.6C629.2,166,627.6,161.8,627.6,156.4z M660.9,43.6v47h22.7c6.8,0,12.3-2.2,16.5-6.6c4.2-4.4,6.3-10,6.3-16.9
			c0-4.4-0.9-8.4-2.8-12c-1.9-3.6-4.6-6.4-8-8.5s-7.5-3.1-12-3.1H660.9z"/>
	</g>
</g>
</svg>
